<svg width="196" height="36" fill="none" xmlns="http://www.w3.org/2000/svg"><path fill-rule="evenodd" clip-rule="evenodd" d="M60.623 35.468a1 1 0 0 0 1-1v-8.326a1 1 0 0 0-1-1h-9.08a1 1 0 0 0-1 1v8.326a1 1 0 0 0 1 1h9.08zm-14.08 0a1 1 0 0 0 1-1v-8.326a1 1 0 0 0-1-1H12.969a1 1 0 0 0-1 1v8.326a1 1 0 0 0 1 1h33.574zM1 22.897a1 1 0 0 1-1-1V13.57a1 1 0 0 1 1-1h13.082-2a1 1 0 0 0-1 1v8.326a1 1 0 0 1-1 1H1zm14.082 0a1 1 0 0 1-1-1V12.57h34.572a1 1 0 0 1 1 1v8.326a1 1 0 0 1-1 1H15.082zM60.623 10.326a1 1 0 0 0 1-1V1a1 1 0 0 0-1-1h-9.08a1 1 0 0 0-1 1v8.326a1 1 0 0 0 1 1h9.08zm-14.08 0a1 1 0 0 0 1-1V1a1 1 0 0 0-1-1H12.969a1 1 0 0 0-1 1v8.326a1 1 0 0 0 1 1h33.574z" fill="#009F8F"/><path d="M125.652 1a1 1 0 0 1 1-1h14.547c4.06 0 7.229 1.049 9.507 3.146 2.311 2.097 3.466 5.108 3.466 9.032 0 2.638-.561 4.888-1.684 6.748a10.194 10.194 0 0 1-3.822 3.695c-.496.277-.721.89-.468 1.399l4.961 10.003a1 1 0 0 1-.896 1.444h-6.779a1 1 0 0 1-.896-.556l-4.945-10a1 1 0 0 0-.897-.556h-3.33a1 1 0 0 0-1 1v9.112a1 1 0 0 1-1 1h-6.764a1 1 0 0 1-1-1V1zm14.013 15.795c1.749 0 3.102-.338 4.06-1.015.957-.71 1.435-1.911 1.435-3.602 0-1.76-.478-2.96-1.435-3.603-.925-.676-2.278-1.015-4.06-1.015h-4.249a1 1 0 0 0-1 1v7.235a1 1 0 0 0 1 1h4.249zM103.078 35.453c-3.89 0-7.306-.695-10.248-2.085-2.942-1.424-5.23-3.443-6.865-6.058-1.602-2.615-2.403-5.694-2.403-9.236 0-3.542.801-6.687 2.403-9.434 1.635-2.748 3.841-4.866 6.62-6.356C95.395.761 98.535 0 101.999 0c3.432 0 6.538.761 9.316 2.284a16.411 16.411 0 0 1 6.62 6.356c1.602 2.747 2.403 5.892 2.403 9.434 0 1.986-.474 3.956-1.422 5.909a15.49 15.49 0 0 1-1.568 2.625c-.558.746-.061 1.993.871 1.993h2.001a1 1 0 0 1 1 1v4.852a1 1 0 0 1-1 1h-17.142zm-1.079-7.498c1.733 0 3.318-.397 4.756-1.191 1.439-.795 2.583-1.937 3.433-3.427.85-1.49 1.275-3.227 1.275-5.213 0-1.986-.425-3.708-1.275-5.164-.818-1.49-1.945-2.632-3.384-3.426-1.438-.828-3.04-1.242-4.805-1.242-1.798 0-3.416.414-4.854 1.242-1.438.794-2.583 1.936-3.433 3.426-.817 1.456-1.225 3.178-1.225 5.164 0 1.986.408 3.724 1.225 5.213.85 1.49 1.995 2.632 3.433 3.427 1.47.794 3.089 1.191 4.854 1.191zM70.623 1a1 1 0 0 1 1-1h6.506a1 1 0 0 1 1 1v33.467a1 1 0 0 1-1 1h-6.506a1 1 0 0 1-1-1V1zM176.917 35.467c-3.442 0-6.559-.746-9.351-2.238-2.759-1.492-4.951-3.567-6.574-6.227-1.591-2.692-2.387-5.773-2.387-9.244 0-3.47.796-6.552 2.387-9.244a16.973 16.973 0 0 1 6.574-6.276C170.358.746 173.475 0 176.917 0c3.409 0 6.493.746 9.253 2.238 2.792 1.492 4.983 3.584 6.574 6.276 1.591 2.692 2.386 5.774 2.386 9.244 0 3.47-.795 6.552-2.386 9.244-1.591 2.66-3.782 4.735-6.574 6.227-2.76 1.492-5.844 2.238-9.253 2.238zm0-8.076c1.72 0 3.295-.39 4.724-1.168 1.428-.778 2.564-1.897 3.409-3.357.844-1.46 1.266-3.162 1.266-5.108 0-1.946-.422-3.633-1.266-5.06-.812-1.46-1.932-2.578-3.361-3.357-1.428-.81-3.019-1.216-4.772-1.216-1.786 0-3.393.405-4.822 1.216-1.428.779-2.565 1.898-3.409 3.357-.811 1.427-1.217 3.114-1.217 5.06 0 1.946.406 3.649 1.217 5.108.844 1.46 1.981 2.579 3.409 3.357 1.461.779 3.068 1.168 4.822 1.168z" fill="#fff"/></svg>