<svg width="63" height="63" fill="none" xmlns="http://www.w3.org/2000/svg"><path d="M18.9 17.325a1.575 1.575 0 0 0-1.575 1.575A26.775 26.775 0 0 0 44.1 45.675a1.575 1.575 0 0 0 1.575-1.575v-5.513a1.575 1.575 0 0 0-1.575-1.575c-1.969 0-3.859-.315-5.623-.897a1.607 1.607 0 0 0-1.606.378l-3.465 3.465a23.697 23.697 0 0 1-10.38-10.38l3.465-3.48c.442-.41.567-1.024.394-1.575a17.894 17.894 0 0 1-.898-5.623 1.575 1.575 0 0 0-1.574-1.575H18.9zm17.325 0v2.363h5.512l-8.662 8.662 1.575 1.575 8.663-8.663v5.513h2.362v-9.45h-9.45z" fill="#011136"/></svg>