<svg width="47" height="47" fill="none" xmlns="http://www.w3.org/2000/svg"><path fill-rule="evenodd" clip-rule="evenodd" d="M17.625 5.875c-6.49 0-11.75 5.26-11.75 11.75s5.26 11.75 11.75 11.75 11.75-5.26 11.75-11.75-5.26-11.75-11.75-11.75zM2.937 17.625c0-8.112 6.576-14.688 14.688-14.688 8.112 0 14.688 6.576 14.688 14.688 0 8.112-6.576 14.688-14.688 14.688-8.112 0-14.688-6.576-14.688-14.688z" fill="#fff"/><path fill-rule="evenodd" clip-rule="evenodd" d="M29.375 17.625c-6.49 0-11.75 5.26-11.75 11.75s5.26 11.75 11.75 11.75 11.75-5.26 11.75-11.75-5.26-11.75-11.75-11.75zm-14.688 11.75c0-8.112 6.576-14.688 14.688-14.688 8.112 0 14.688 6.576 14.688 14.688 0 8.112-6.576 14.688-14.688 14.688-8.112 0-14.688-6.576-14.688-14.688z" fill="#fff"/><path fill-rule="evenodd" clip-rule="evenodd" d="M21.452 17.045a1.469 1.469 0 0 1 2.077 0l6.426 6.426a1.469 1.469 0 1 1-2.077 2.077l-6.426-6.425a1.469 1.469 0 0 1 0-2.078zM17.045 21.452a1.469 1.469 0 0 1 2.077 0l6.426 6.425a1.469 1.469 0 1 1-2.077 2.078l-6.426-6.426a1.469 1.469 0 0 1 0-2.077z" fill="#fff"/></svg>