<svg width="47" height="47" fill="none" xmlns="http://www.w3.org/2000/svg"><path fill-rule="evenodd" clip-rule="evenodd" d="M19.094 7.344c0-.811.657-1.469 1.468-1.469h5.875a1.469 1.469 0 1 1 0 2.938h-5.875a1.469 1.469 0 0 1-1.468-1.47zM19.094 39.656c0-.81.657-1.468 1.468-1.468h5.875a1.469 1.469 0 1 1 0 2.937h-5.875a1.469 1.469 0 0 1-1.468-1.469zM32.313 7.344c0-.811.657-1.469 1.468-1.469h4.407a2.937 2.937 0 0 1 2.937 2.938v4.406a1.469 1.469 0 0 1-2.938 0V8.813h-4.406a1.469 1.469 0 0 1-1.468-1.47zM39.656 19.094c.811 0 1.469.657 1.469 1.468v5.875a1.469 1.469 0 0 1-2.938 0v-5.875c0-.81.658-1.468 1.47-1.468zM39.656 32.313c.811 0 1.469.657 1.469 1.468v4.407a2.937 2.937 0 0 1-2.938 2.937h-4.406a1.469 1.469 0 0 1 0-2.938h4.407v-4.406c0-.81.657-1.468 1.468-1.468zM7.344 19.094c.81 0 1.468.657 1.468 1.468v5.875a1.469 1.469 0 1 1-2.937 0v-5.875c0-.81.658-1.468 1.469-1.468zM7.344 32.313c.81 0 1.468.657 1.468 1.468v4.407h4.407a1.469 1.469 0 0 1 0 2.937H8.813a2.937 2.937 0 0 1-2.938-2.938v-4.406c0-.81.658-1.468 1.469-1.468zM6.735 6.735c.551-.55 1.298-.86 2.077-.86h4.407a1.469 1.469 0 0 1 0 2.938H8.813v4.406a1.469 1.469 0 0 1-2.938 0V8.813c0-.78.31-1.527.86-2.078zM13.219 14.688c0-.812.657-1.47 1.469-1.47h17.624c.812 0 1.47.658 1.47 1.47v17.624c0 .812-.658 1.47-1.47 1.47H14.689a1.469 1.469 0 0 1-1.47-1.47V14.689zm2.937 1.468v14.688h14.688V16.156H16.156z" fill="#fff"/></svg>