<svg width="47" height="47" fill="none" xmlns="http://www.w3.org/2000/svg"><path fill-rule="evenodd" clip-rule="evenodd" d="M7.344 35.25c.81 0 1.468.658 1.468 1.469v1.468h1.47a1.469 1.469 0 1 1 0 2.938h-1.47a2.937 2.937 0 0 1-2.937-2.938V36.72c0-.811.658-1.469 1.469-1.469zM14.688 16.156c0-.81.657-1.468 1.468-1.468h4.407a1.469 1.469 0 1 1 0 2.937h-4.407a1.469 1.469 0 0 1-1.468-1.469zM16.156 39.656c0-.81.658-1.468 1.469-1.468h2.938a1.469 1.469 0 1 1 0 2.937h-2.938a1.469 1.469 0 0 1-1.469-1.469zM30.844 24.969c.81 0 1.468.657 1.468 1.468v4.407a1.469 1.469 0 0 1-2.937 0v-4.407c0-.81.658-1.468 1.469-1.468zM7.344 24.969c.81 0 1.468.657 1.468 1.468v2.938a1.469 1.469 0 1 1-2.937 0v-2.938c0-.81.658-1.468 1.469-1.468zM30.844 35.25c.81 0 1.468.658 1.468 1.469v1.468a2.937 2.937 0 0 1-2.937 2.938h-1.469a1.469 1.469 0 0 1 0-2.938h1.469V36.72c0-.811.658-1.469 1.469-1.469zM26.438 16.156c0-.81.657-1.468 1.468-1.468h1.469a2.937 2.937 0 0 1 2.938 2.937v1.469a1.469 1.469 0 0 1-2.938 0v-1.469h-1.469a1.469 1.469 0 0 1-1.468-1.469zM6.735 15.548c.551-.551 1.298-.86 2.077-.86h1.47a1.469 1.469 0 1 1 0 2.937h-1.47v1.469a1.469 1.469 0 0 1-2.937 0v-1.469c0-.78.31-1.526.86-2.077z" fill="#fff"/><path fill-rule="evenodd" clip-rule="evenodd" d="M15.548 6.735c.55-.55 1.298-.86 2.077-.86h20.563a2.937 2.937 0 0 1 2.937 2.938v20.562a2.937 2.937 0 0 1-2.938 2.938h-7.343a1.469 1.469 0 1 1 0-2.938h7.343V8.812H17.625v7.344a1.469 1.469 0 1 1-2.938 0V8.813c0-.78.31-1.527.86-2.078z" fill="#fff"/></svg>