<svg width="47" height="47" fill="none" xmlns="http://www.w3.org/2000/svg"><path fill-rule="evenodd" clip-rule="evenodd" d="M1.469 14.688c0-.812.657-1.47 1.468-1.47h16.157a1.469 1.469 0 1 1 0 2.938H2.937a1.469 1.469 0 0 1-1.468-1.468zM26.438 14.688c0-.812.657-1.47 1.468-1.47h16.157a1.469 1.469 0 1 1 0 2.938H27.905a1.469 1.469 0 0 1-1.468-1.468z" fill="#fff"/><path fill-rule="evenodd" clip-rule="evenodd" d="M23.5 11.75a2.938 2.938 0 1 0 0 5.875 2.938 2.938 0 0 0 0-5.875zm-5.875 2.938a5.875 5.875 0 1 1 11.75 0 5.875 5.875 0 0 1-11.75 0zM7.344 29.375a2.938 2.938 0 1 0 0 5.875 2.938 2.938 0 0 0 0-5.875zm-5.875 2.938a5.875 5.875 0 1 1 11.75 0 5.875 5.875 0 0 1-11.75 0zM39.656 29.375a2.937 2.937 0 1 0 0 5.875 2.937 2.937 0 0 0 0-5.875zm-5.875 2.938a5.875 5.875 0 1 1 11.75 0 5.875 5.875 0 0 1-11.75 0z" fill="#fff"/><path fill-rule="evenodd" clip-rule="evenodd" d="M26.455 14.896a1.469 1.469 0 0 1 1.812-1.017 17.644 17.644 0 0 1 12.576 13.758 1.469 1.469 0 0 1-2.888.538 14.706 14.706 0 0 0-10.482-11.468 1.469 1.469 0 0 1-1.018-1.81zM20.545 14.896c.219.781-.237 1.592-1.018 1.811A14.706 14.706 0 0 0 9.046 28.175a1.469 1.469 0 0 1-2.888-.538A17.643 17.643 0 0 1 18.733 13.88a1.469 1.469 0 0 1 1.812 1.017z" fill="#fff"/></svg>