<svg width="47" height="47" fill="none" xmlns="http://www.w3.org/2000/svg"><path fill-rule="evenodd" clip-rule="evenodd" d="M14.5 29.256a1.469 1.469 0 0 1-.923 1.86c-2.49.837-3.813 2.927-4.52 5.053-.282.843-.452 1.656-.554 2.328a14.168 14.168 0 0 0 2.329-.553c2.125-.708 4.215-2.031 5.052-4.52a1.469 1.469 0 1 1 2.784.936c-1.255 3.734-4.361 5.523-6.908 6.37a17.334 17.334 0 0 1-4.745.852l-.089.002h-.04l-.001-1.469H5.416V40.073a7.153 7.153 0 0 1 .014-.397 17.33 17.33 0 0 1 .839-4.437c.848-2.547 2.637-5.652 6.371-6.908a1.469 1.469 0 0 1 1.86.924zm-7.615 10.86H5.416c0 .81.658 1.468 1.469 1.468v-1.469zM38.883 8.116c-1.704-.245-5.9-.338-10.195 3.957L17.26 23.5l6.24 6.24 11.427-11.428c4.295-4.294 4.202-8.49 3.956-10.196zm.426-2.906c-2.344-.34-7.57-.342-12.698 4.785L14.145 22.461a1.47 1.47 0 0 0 0 2.078l8.316 8.316a1.469 1.469 0 0 0 2.078 0L37.004 20.39c5.128-5.127 5.125-10.354 4.786-12.699a2.901 2.901 0 0 0-2.48-2.48z" fill="#fff"/><path fill-rule="evenodd" clip-rule="evenodd" d="M33.891 19.957c.812 0 1.47.657 1.47 1.468v11.86l-.001.022a2.937 2.937 0 0 1-.874 2.049L28.559 41.3a2.938 2.938 0 0 1-4.957-1.504l-1.542-7.691a1.469 1.469 0 0 1 2.88-.578l1.543 7.695 5.94-5.958v-11.84c0-.81.657-1.468 1.468-1.468zM13.694 11.64H25.574a1.469 1.469 0 0 1 0 2.937H13.736l-.012.012-5.946 5.928h.002l7.693 1.543a1.469 1.469 0 1 1-.577 2.88l-7.69-1.542h-.002a2.938 2.938 0 0 1-1.504-4.957l.002-.002 5.943-5.925a2.937 2.937 0 0 1 2.05-.874z" fill="#fff"/></svg>